<?xml version="1.0" encoding="UTF-8" standalone="no"?>
<!-- Created with Inkscape (http://www.inkscape.org/) -->

<svg
   width="88.517754mm"
   height="121.7897mm"
   viewBox="0 0 88.517754 121.7897"
   version="1.1"
   id="svg1"
   inkscape:version="1.4 (86a8ad7, 2024-10-11)"
   sodipodi:docname="apexfitlogo.svg"
   xmlns:inkscape="http://www.inkscape.org/namespaces/inkscape"
   xmlns:sodipodi="http://sodipodi.sourceforge.net/DTD/sodipodi-0.dtd"
   xmlns="http://www.w3.org/2000/svg"
   xmlns:svg="http://www.w3.org/2000/svg">
  <sodipodi:namedview
     id="namedview1"
     pagecolor="#ffffff"
     bordercolor="#000000"
     borderopacity="0.25"
     inkscape:showpageshadow="2"
     inkscape:pageopacity="0.0"
     inkscape:pagecheckerboard="0"
     inkscape:deskcolor="#d1d1d1"
     inkscape:document-units="mm"
     inkscape:zoom="0.69670057"
     inkscape:cx="226.06555"
     inkscape:cy="207.40617"
     inkscape:window-width="1366"
     inkscape:window-height="710"
     inkscape:window-x="-8"
     inkscape:window-y="-8"
     inkscape:window-maximized="1"
     inkscape:current-layer="layer1"
     showguides="true" />
  <defs
     id="defs1">
    <rect
       x="42.627331"
       y="412.06418"
       width="667.82819"
       height="251.70422"
       id="rect1" />
  </defs>
  <g
     inkscape:label="Layer 1"
     inkscape:groupmode="layer"
     id="layer1"
     transform="translate(-5.4542545,-1.1312029)">
    <text
       xml:space="preserve"
       transform="scale(0.26458333)"
       id="text1"
       style="font-size:64px;text-align:start;writing-mode:lr-tb;direction:ltr;white-space:pre;shape-inside:url(#rect1);display:inline;fill:#000000" />
    <path
       style="fill:#000000;stroke-width:0.264583"
       d="m 45.571947,7.9750909 c 0,-2.025421 0,-2.025421 0,0 z"
       id="path2" />
    <path
       style="fill:#ff0000;stroke-width:0.264583"
       id="path3"
       d="m 7.9883775,92.991931 c 1.476187,-3.31742 2.9361365,-6.64211 4.4285665,-9.95225 1.925421,-4.270499 3.9009,-8.518316 5.824889,-12.789456 2.094468,-4.649594 4.143545,-9.319521 6.23039,-13.972539 5.026768,-11.208139 10.068242,-22.409282 15.080287,-33.624083 2.893677,-6.582257 5.742887,-13.1846911 8.365667,-19.8800041 0,0 -2.9748,-1.642396 -2.9748,-1.642396 v 0 C 42.859617,8.0766939 40.426468,14.909082 37.784482,21.662161 28.349176,45.534293 18.425388,69.338225 5.4542545,91.545371 Z" />
    <path
       style="fill:#ff0000;stroke-width:0.264583"
       id="path4"
       d="m 45.469607,3.2812989 c 4.61629,5.755821 7.77836,12.4828551 11.1081,19.0169651 1.29617,2.543551 2.58846,5.089086 3.88268,7.633629 7.72945,14.693807 14.323,29.936527 21.17018,45.049831 1.96372,4.405527 3.99955,8.783717 6.56437,12.873987 0.52918,0.88597 1.217,1.64652 1.86489,2.44035 0.21348,0.3372 0.11132,0.16621 0.30657,0.5129 0,0 3.60561,1.59554 3.60561,1.59554 v 0 c -0.22081,-0.33664 -0.11873,-0.15461 -0.29993,-0.54958 -0.23039,-0.33988 -0.50071,-0.57903 -0.77239,-0.88251 -0.44769,-0.50009 -0.79405,-1.086 -1.23301,-1.59309 -2.83333,-4.20468 -5.28959,-8.63642 -7.45636,-13.222963 -7.32254,-15.027971 -14.06775,-30.329838 -21.60547,-45.25368 -1.21944,-2.51044 -2.44696,-5.01697 -3.65831,-7.531322 -3.03326,-6.295982 -5.86748,-12.748381 -9.87071,-18.5122121 z" />
    <path
       style="fill:#ff0000;stroke-width:0.264583"
       id="path5"
       d="m 29.109062,91.779811 c 0.04006,-5.1841 -0.237114,-10.3633 -0.359704,-15.545364 -0.202922,-4.548368 -0.354515,-9.099431 -0.418343,-13.65196 -0.01254,-1.388015 -0.01807,-2.776165 -0.01175,-4.16423 0.0042,-0.819615 0.01349,-1.63922 0.0079,-2.458841 -0.0019,-0.578948 8.5e-5,-1.157899 0.0016,-1.736847 0,0 -3.490587,-1.778736 -3.490587,-1.778736 v 0 c 0.0011,0.57884 0.0024,1.157685 -0.0013,1.736519 -0.0082,0.821933 -0.0046,1.643954 0.0013,2.465898 0.0168,1.419241 0.06595,2.837273 0.160766,4.253712 0.266253,4.59478 0.563973,9.188902 0.696939,13.790027 0.178988,5.094912 0.467344,10.221052 -0.02791,15.305562 z" />
    <path
       style="fill:#ff0000;stroke-width:0.264583"
       id="path6"
       d="m 20.097928,74.45487 c 1.48772,-0.06559 2.971384,-0.02667 4.455382,0.0833 0.860052,0.05932 1.720194,0.117015 2.580539,0.171847 0,0 -3.099194,-2.279864 -3.099194,-2.279864 v 0 c -0.853988,-0.04678 -1.707888,-0.09557 -2.560608,-0.162305 -1.522648,-0.100746 -3.043809,-0.117687 -4.569301,-0.132961 z" />
    <path
       style="fill:#ff0000;stroke-width:0.264583"
       id="path7"
       d="m 35.88104,73.168074 c 0.483601,3.641437 0.595853,7.318927 0.712621,10.986547 0.09455,3.4428 0.102209,6.88693 0.08093,10.33067 -0.0013,1.46961 -0.04405,2.93879 -0.05084,4.40832 -0.01871,1.328499 0.01058,2.653589 0.115281,3.977989 0.01942,0.22558 0.03881,0.45116 0.05822,0.67675 0,0 3.462438,1.72349 3.462438,1.72349 v 0 c -0.02307,-0.22617 -0.04616,-0.45234 -0.06924,-0.67851 -0.120092,-1.30997 -0.122542,-2.61581 -0.09569,-3.93053 -0.0026,-1.489919 -0.04271,-2.979479 -0.0616,-4.469229 -0.07024,-3.4852 -0.174371,-6.96963 -0.30152,-10.45321 -0.125468,-3.61053 -0.219985,-7.222094 -0.328115,-10.832323 z" />
    <path
       style="fill:#ff0000;stroke-width:0.264583"
       id="path8"
       d="m 38.734116,75.680996 c 0.792244,-0.792546 1.757264,-1.369481 2.616341,-2.077392 1.00615,-0.810842 2.11319,-1.464757 3.33795,-1.875277 0.94152,-0.27061 1.88617,-0.401563 2.83868,-0.148619 1.14516,0.744998 3.43991,1.63567 -2.03146,-1.11838 -0.18542,-0.09333 0.32367,0.260564 0.47572,0.401883 0.39547,0.367544 0.49261,0.516679 0.83651,0.937782 1.07747,1.194144 1.99569,2.463122 2.58048,3.964977 0.5972,1.652235 0.20963,3.318208 -0.1933,4.961021 -0.26737,1.07246 -0.56387,2.17707 -1.2021,3.09548 -0.48687,0.63284 -1.1353,1.07922 -1.80757,1.49284 -0.89101,0.67212 -1.88859,1.13875 -2.89989,1.59521 -1.11258,0.50454 -2.326847,0.67543 -3.533247,0.773 -0.83987,0.0162 -1.697302,0.12142 -2.528863,-0.0252 -0.37455,-0.0565 -0.725808,-0.12643 -1.077399,-0.26541 0,0 3.109782,2.40643 3.109782,2.40643 v 0 c 0.36823,0.0866 0.73813,0.15997 1.11447,0.20328 0.851837,0.0577 1.708277,0.0115 2.558367,-0.0582 1.22647,-0.14021 2.45567,-0.36252 3.58038,-0.8944 1.03176,-0.46491 2.05202,-0.94679 2.97182,-1.61477 0.70242,-0.46149 1.39959,-0.93991 1.90285,-1.62737 0.62607,-0.98717 0.92132,-2.1328 1.17709,-3.26308 0.41318,-1.69742 0.874,-3.430482 0.31519,-5.154765 -0.5408,-1.538253 -1.40162,-2.861691 -2.50806,-4.061706 -1.4626,-1.984931 -3.65362,-3.244898 -5.95452,-4.108146 -1.00272,-0.148106 -1.98506,0.0075 -2.94292,0.33563 -1.235117,0.47267 -2.369197,1.159729 -3.404098,1.983366 -0.890911,0.68094 -1.809647,1.325219 -2.671527,2.04433 z" />
    <path
       style="fill:#ff0000;stroke-width:0.254702"
       id="path8-8"
       d="m 72.728077,76.176684 c -0.73417,-0.792546 -1.62846,-1.369481 -2.42458,-2.077392 -0.9324,-0.810842 -1.9583,-1.464757 -3.09329,-1.875277 -0.87251,-0.27061 -1.74792,-0.401563 -2.63061,-0.148619 -1.06123,0.744998 -3.18778,1.63567 1.88256,-1.11838 0.17183,-0.09333 -0.29995,0.260564 -0.44085,0.401883 -0.36649,0.367544 -0.45651,0.516679 -0.7752,0.937782 -0.9985,1.194144 -1.84942,2.463122 -2.39134,3.964977 -0.55343,1.652235 -0.19427,3.318208 0.17913,4.961023 0.24777,1.07246 0.52254,2.17707 1.11399,3.09548 0.45118,0.63284 1.05209,1.07922 1.67508,1.49284 0.82571,0.67212 1.75017,1.13875 2.68734,1.59521 1.03104,0.50454 2.1563,0.67543 3.27428,0.773 0.77831,0.0162 1.5729,0.12142 2.34351,-0.0252 0.34709,-0.0565 0.67261,-0.12643 0.99843,-0.26541 0,0 -2.88185,2.40643 -2.88185,2.40643 v 0 c -0.34124,0.0866 -0.68403,0.15997 -1.03278,0.20328 -0.78941,0.0577 -1.58307,0.0115 -2.37086,-0.0582 -1.13657,-0.14021 -2.27568,-0.36252 -3.31795,-0.8944 -0.95614,-0.46491 -1.90161,-0.94679 -2.754,-1.61477 -0.65093,-0.46149 -1.297,-0.93991 -1.76338,-1.62737 -0.58018,-0.98717 -0.85379,-2.1328 -1.09081,-3.26308 -0.3829,-1.69742 -0.80994,-3.430484 -0.29209,-5.154767 0.50116,-1.538253 1.29889,-2.861691 2.32423,-4.061706 1.3554,-1.984931 3.38583,-3.244898 5.51808,-4.108146 0.92923,-0.148106 1.83956,0.0075 2.72722,0.33563 1.14459,0.47267 2.19554,1.159729 3.15459,1.983366 0.82561,0.68094 1.677,1.325219 2.47572,2.04433 z" />
    <path
       style="fill:#ff0000;stroke-width:0.264583"
       id="path10"
       d="m 83.434217,92.073751 c 0.356,-2.32088 1.32899,-4.50533 2.20183,-6.66972 0.91419,-2.40144 2.14236,-4.66567 3.33878,-6.934866 0.84131,-1.389962 1.69551,-2.769907 2.51956,-4.169942 0.62112,-0.888412 1.0289,-1.89426 1.50846,-2.85832 0.22137,-0.456528 0.41246,-0.927666 0.60247,-1.398066 0,0 -3.42923,-1.915377 -3.42923,-1.915377 v 0 c -0.18463,0.463775 -0.37686,0.92456 -0.57802,1.381207 -0.45297,0.967304 -0.85065,1.965068 -1.46227,2.850497 -0.8087,1.413565 -1.61081,2.830443 -2.42916,4.238622 -1.21546,2.275162 -2.39109,4.581915 -3.31365,6.993515 -0.88739,2.18512 -1.84752,4.36839 -2.43689,6.65543 z" />
    <text
       xml:space="preserve"
       style="font-size:16.9333px;text-align:start;writing-mode:lr-tb;direction:ltr;text-anchor:start;fill:#000000;stroke-width:0.264583"
       x="115.06916"
       y="128.74074"
       id="text10"><tspan
         sodipodi:role="line"
         id="tspan10"
         style="stroke-width:0.264583"
         x="115.06916"
         y="128.74074" /></text>
    <text
       xml:space="preserve"
       style="font-size:16.9333px;text-align:start;writing-mode:lr-tb;direction:ltr;text-anchor:start;fill:#000000;stroke-width:0.264583"
       x="109.75243"
       y="118.10729"
       id="text11"><tspan
         sodipodi:role="line"
         id="tspan11"
         style="stroke-width:0.264583"
         x="109.75243"
         y="118.10729" /></text>
    <path
       style="fill:#0000ff;stroke-width:0.264583"
       id="path13"
       d="m 46.475847,97.403721 c 0.35557,3.216359 0.39357,6.455569 0.46423,9.687359 0.0327,3.15501 8e-4,6.30787 0.14306,9.46049 0.0576,1.10705 0.11792,2.21393 0.14555,3.32221 0,0 3.49956,1.77039 3.49956,1.77039 v 0 c -0.0371,-1.13223 -0.13313,-2.26054 -0.24412,-3.38778 -0.27354,-3.17453 -0.3327,-6.35465 -0.34171,-9.54048 -0.0384,-3.17497 -0.10583,-6.34957 -0.15765,-9.524299 z" />
    <path
       style="fill:#0000ff;stroke-width:0.264583"
       id="path14"
       d="m 51.238757,101.0385 c 1.64817,0.18378 3.29862,0.20985 4.95407,0.15809 1.69972,-0.076 3.40002,-0.13325 5.10125,-0.15874 0.20145,-0.002 0.4029,-0.004 0.60435,-0.006 0,0 -3.14609,-2.276889 -3.14609,-2.276889 v 0 c -0.19771,0.005 -0.39542,0.0109 -0.59313,0.0163 -1.68518,0.0542 -3.36957,0.1273 -5.05426,0.19459 -1.69412,0.0401 -3.3757,-0.0533 -5.05937,-0.24753 z" />
    <path
       style="fill:#0000ff;stroke-width:0.264583"
       id="path15"
       d="m 50.817137,112.43408 c 1.51029,-0.0455 3.02203,-0.0394 4.53292,-0.0341 1.16376,-0.0757 2.30422,0.12043 3.45179,0.2707 0.94148,0.11224 1.87743,-0.0913 2.79189,-0.29352 0.15532,-0.031 0.31065,-0.0621 0.46598,-0.0932 0,0 -3.20684,-2.23261 -3.20684,-2.23261 v 0 c -0.15549,0.0324 -0.31098,0.0649 -0.46647,0.0973 -0.89446,0.18492 -1.80886,0.32682 -2.72103,0.18121 -1.13711,-0.14433 -2.27279,-0.25578 -3.42171,-0.18681 -1.54222,0.005 -3.08518,0.0101 -4.62686,-0.0341 z" />
    <path
       style="fill:#0000ff;stroke-width:0.264583"
       id="path16"
       d="m 65.084387,109.93601 c -0.009,1.35322 0.09,2.6982 0.20407,4.04549 0.1353,1.5292 0.1805,3.06336 0.19698,4.59776 0.003,0.84694 0.002,0.43471 7.9e-4,1.23671 0,0 3.46341,1.76147 3.46341,1.76147 v 0 c -0.0135,-0.812 -0.006,-0.39469 -0.0229,-1.25194 -0.0345,-1.5423 -0.057,-3.0872 -0.1935,-4.62461 -0.10783,-1.32429 -0.23497,-2.64692 -0.13989,-3.97699 z" />
    <path
       style="fill:#0000ff;stroke-width:0.264583"
       id="path17"
       d="m 76.884401,96.626084 c 0.36645,2.378319 0.37236,4.799716 0.40108,7.201316 -0.003,2.00581 0.0153,4.01167 0.002,6.01744 -0.0225,1.53048 -0.006,3.061 -0.009,4.5915 -0.0652,1.24716 0.01,2.48018 0.14339,3.71879 0.13115,0.7988 0.26533,1.60161 0.7203,2.28375 0.27766,0.37392 0.63223,0.67889 0.96651,0.99974 0,0 3.65881,1.48228 3.65881,1.48228 v 0 c -0.36386,-0.27551 -0.65764,-0.62268 -1.00976,-0.91272 -0.12082,-0.15987 -0.27009,-0.29936 -0.37379,-0.47082 -0.29737,-0.49165 -0.28797,-1.12528 -0.47845,-1.65567 -0.14142,-1.23067 -0.24661,-2.4572 -0.19894,-3.69846 -0.002,-1.53336 0.0173,-3.06671 -0.006,-4.60004 -0.0175,-2.02314 -0.0106,-4.04662 -0.0884,-6.06881 -0.0609,-2.38489 -0.0813,-4.77176 -0.18215,-7.155047 z" />
    <path
       style="fill:#0000ff;stroke-width:0.264583"
       id="path18"
       d="m 74.043369,112.73909 c 2.14139,-0.56588 4.32374,-0.90896 6.52254,-1.16963 1.93795,-0.21485 3.88722,-0.28736 5.83571,-0.30482 0.95546,-0.003 1.91088,0.009 2.86631,0.0157 0.51135,0.003 0.25665,0.002 0.76409,0.003 0,0 -3.17575,-2.30891 -3.17575,-2.30891 v 0 c -0.50585,-0.001 -0.25205,-7.9e-4 -0.7614,-0.002 -0.94181,-0.002 -1.88376,-0.001 -2.82528,0.0259 -1.92409,0.0613 -3.84708,0.1745 -5.75878,0.40895 -2.24335,0.29917 -4.46866,0.68331 -6.6979,1.06484 z" />
    <circle
       id="path19"
       style="fill:#0000ff;stroke:#000000;stroke-width:0.264583"
       cx="66.459091"
       cy="102.91664"
       r="0.050584488" />
    <circle
       id="path20"
       style="fill:#0000ff;stroke:#000000;stroke-width:0.264583"
       cx="66.079315"
       cy="104.81547"
       r="0.050584488" />
    <circle
       id="path22"
       style="fill:#0000ff;stroke:#000000;stroke-width:0.264583"
       cx="65.699554"
       cy="103.2964"
       r="0.050584488" />
    <path
       style="fill:#0000ff;stroke-width:0.264583"
       id="path30"
       d="m 67.517817,102.45614 c 0.0947,-0.45705 0.28433,-0.88514 0.45322,-1.31774 0,0 -3.41169,-1.901989 -3.41169,-1.901989 v 0 c -0.17161,0.43658 -0.36139,0.867099 -0.49635,1.317009 z" />
    <circle
       id="path31"
       style="fill:#000000;stroke:#000000;stroke-width:0.264583"
       cx="72.915108"
       cy="72.155579"
       r="0.050584488" />
    <path
       style="fill:#ff0000;stroke-width:0.264583"
       id="path34"
       d="m 63.771037,81.290661 c 1.24861,-0.0263 2.49759,-0.0261 3.74641,-0.0269 1.15254,0.0106 2.29513,0.0565 3.43671,-0.11361 0.91955,-0.18306 1.68558,-0.63166 2.41858,-1.19502 0.64828,-0.443908 1.23118,-0.970924 1.83481,-1.471978 0.48471,-0.477819 0.80559,-1.108194 1.06181,-1.733717 0.31236,-0.866415 0.008,-1.572064 -0.448,-2.304796 -0.0775,-0.108627 -0.15497,-0.217255 -0.23245,-0.325882 0,0 -3.6072,-1.544243 -3.6072,-1.544243 v 0 c 0.0841,0.09642 0.16824,0.192849 0.25236,0.289274 0.39861,0.626856 0.88074,1.177007 0.59615,1.964468 -0.22329,0.568221 -0.50726,1.147042 -0.95598,1.568759 -0.59836,0.493266 -1.1603,1.032137 -1.80402,1.468364 -0.70136,0.5081 -1.44416,0.897159 -2.31242,1.029581 -1.11459,0.144862 -2.23779,0.08668 -3.35941,0.102661 -1.27354,-7.94e-4 -2.5472,-0.0011 -3.82053,-0.02692 z" />
  </g>
</svg>
